HIERARCHY
ROOT Hips
{
	OFFSET 46.796299 -32.920715 99.172691
	CHANNELS 6 Xposition Yposition Zposition Xrotation Yrotation Zrotation
	JOINT spine
	{
		OFFSET 0.000000 -0.477356 8.301041
		CHANNELS 3 Xrotation Yrotation Zrotation
		JOINT spine1
		{
			OFFSET 0.000000 0.000000 10.456497
			CHANNELS 3 Xrotation Yrotation Zrotation
			JOINT spine2
			{
				OFFSET 0.000000 0.000000 10.019203
				CHANNELS 3 Xrotation Yrotation Zrotation
				JOINT Neck
				{
					OFFSET 0.000000 -1.226418 25.723511
					CHANNELS 3 Xrotation Yrotation Zrotation
					JOINT Head
					{
						OFFSET 0.000000 0.000000 7.771744
						CHANNELS 3 Xrotation Yrotation Zrotation
						End Site
						{
							OFFSET 0.000000 6.203938 18.811996
						}
					}
				}
				JOINT RightShoulder
				{
					OFFSET -4.218800 0.587437 10.820007
					CHANNELS 3 Xrotation Yrotation Zrotation
					JOINT RightArm
					{
						OFFSET 0.000000 -0.000004 14.191406
						CHANNELS 3 Xrotation Yrotation Zrotation
						JOINT RightArmRoll
						{
							OFFSET 0.000000 0.000000 7.164078
							CHANNELS 3 Xrotation Yrotation Zrotation
							JOINT RightForeArm
							{
								OFFSET 0.000000 -0.000004 20.866501
								CHANNELS 3 Xrotation Yrotation Zrotation
								JOINT RightForeArmRoll
								{
									OFFSET 0.000000 0.000000 8.039215
									CHANNELS 3 Xrotation Yrotation Zrotation
									JOINT RightHand
									{
										OFFSET 0.000000 -0.000004 16.132996
										CHANNELS 3 Xrotation Yrotation Zrotation
										End Site
										{
											OFFSET 0.000000 0.000000 0.100006
										}
									}
								}
							}
						}
					}
				}
				JOINT LeftShoulder
				{
					OFFSET 4.218800 0.587437 10.820007
					CHANNELS 3 Xrotation Yrotation Zrotation
					JOINT LeftArm
					{
						OFFSET 0.000000 -0.000004 14.191406
						CHANNELS 3 Xrotation Yrotation Zrotation
						JOINT LeftArmRoll
						{
							OFFSET 0.000000 0.000000 7.164078
							CHANNELS 3 Xrotation Yrotation Zrotation
							JOINT LeftForeArm
							{
								OFFSET 0.000000 -0.000004 20.866501
								CHANNELS 3 Xrotation Yrotation Zrotation
								JOINT LeftForeArmRoll
								{
									OFFSET 0.000000 0.000000 8.039215
									CHANNELS 3 Xrotation Yrotation Zrotation
									JOINT LeftHand
									{
										OFFSET 0.000000 -0.000004 16.132996
										CHANNELS 3 Xrotation Yrotation Zrotation
										End Site
										{
											OFFSET 0.000000 0.000000 0.100006
										}
									}
								}
							}
						}
					}
				}
			}
		}
	}
	JOINT RightUpLeg
	{
		OFFSET -7.357731 1.131809 -1.349213
		CHANNELS 3 Xrotation Yrotation Zrotation
		JOINT RightUpLegRoll
		{
			OFFSET 0.000000 -0.000004 18.916801
			CHANNELS 3 Xrotation Yrotation Zrotation
			JOINT RightLeg
			{
				OFFSET 0.000000 0.000004 -23.425598
				CHANNELS 3 Xrotation Yrotation Zrotation
				JOINT RightLegRoll
				{
					OFFSET 0.000000 -0.000004 23.502296
					CHANNELS 3 Xrotation Yrotation Zrotation
					JOINT RightFoot
					{
						OFFSET 0.000000 -0.000004 19.561714
						CHANNELS 3 Xrotation Yrotation Zrotation
						JOINT RightToeBase
						{
							OFFSET 0.000000 -0.000002 16.352600
							CHANNELS 3 Xrotation Yrotation Zrotation
							End Site
							{
								OFFSET 0.006931 0.912834 7.919434
							}
						}
					}
				}
			}
		}
	}
	JOINT LeftUpLeg
	{
		OFFSET 7.357731 1.131809 -1.349213
		CHANNELS 3 Xrotation Yrotation Zrotation
		JOINT LeftUpLegRoll
		{
			OFFSET 0.000000 -0.000004 18.916901
			CHANNELS 3 Xrotation Yrotation Zrotation
			JOINT LeftLeg
			{
				OFFSET 0.000000 -0.000004 23.425514
				CHANNELS 3 Xrotation Yrotation Zrotation
				JOINT LeftLegRoll
				{
					OFFSET 0.000000 -0.000004 23.719498
					CHANNELS 3 Xrotation Yrotation Zrotation
					JOINT LeftFoot
					{
						OFFSET 0.000000 -0.000004 19.344406
						CHANNELS 3 Xrotation Yrotation Zrotation
						JOINT LeftToeBase
						{
							OFFSET 0.000000 -0.000002 16.352600
							CHANNELS 3 Xrotation Yrotation Zrotation
							End Site
							{
								OFFSET -0.031063 0.912834 7.919434
							}
						}
					}
				}
			}
		}
	}
}
MOTION
Frames: 10
Frame Time: 0.041667
48.515804 1.184113 54.328979 -27.890656 1.853067 3.894505 3.464261 -0.432316 -0.381960 10.929004 -0.880490 -0.719745 12.574037 -0.889003 -0.708927 29.154823 -7.567783 -0.293489 -12.828065 6.438102 -0.959542 5.078684 -85.616257 2.207270 33.445964 -74.550531 22.146479 0.000000 -0.000000 -0.000001 87.583980 -8.018716 0.490339 0.000008 0.000007 -3.004078 -4.999932 -7.999205 0.000054 3.525575 62.522889 -3.578351 -36.611385 102.352734 43.074305 0.000000 -0.000006 0.000000 69.635315 7.426475 -2.247620 -0.000026 -0.000001 3.000000 -5.000001 7.999176 -0.000058 -60.569243 -160.053872 12.811586 179.999964 -0.000005 -1.581006 81.582054 1.907319 0.271777 -0.000004 -0.000010 2.061619 74.503041 9.096758 -4.925072 25.462216 -7.350660 0.004309 -64.783327 161.495411 -5.991605 -0.000004 -0.000005 -1.599380 -100.659387 -4.871282 -5.066720 -0.000008 0.000006 -2.409623 74.197745 -8.246632 2.340776 26.313234 7.349253 -0.111755 
48.513302 1.191685 54.334892 -27.892276 1.854348 3.894409 3.467261 -0.432449 -0.382237 10.934906 -0.880782 -0.721133 12.580040 -0.889313 -0.710314 29.172844 -7.562625 -0.292152 -12.853170 6.435671 -0.957474 5.170370 -85.632199 2.298893 33.516981 -74.528600 22.208999 -0.000000 -0.000002 -0.000001 87.589595 -8.018304 0.488035 0.000007 0.000011 -3.004078 -4.999935 -7.999204 0.000050 3.544459 62.528722 -3.599158 -36.684980 102.359271 43.116573 -0.000001 -0.000005 -0.000000 69.627952 7.423439 -2.243070 -0.000026 -0.000000 2.999999 -5.000002 7.999175 -0.000056 -60.566545 -160.059049 12.811795 179.999964 -0.000006 -1.581007 81.584035 1.907935 0.271790 -0.000003 -0.000008 2.061589 74.501450 9.096028 -4.923445 25.462209 -7.350661 0.004310 -64.782418 161.502254 -5.985887 -0.000005 -0.000005 -1.599381 -100.658731 -4.873440 -5.070890 -0.000008 0.000005 -2.408976 74.191823 -8.245252 2.333736 26.315756 7.349242 -0.111943 
48.512505 1.194176 54.338791 -27.893699 1.855676 3.894141 3.470191 -0.432503 -0.382483 10.940807 -0.880885 -0.722495 12.585941 -0.889435 -0.711678 29.190173 -7.558931 -0.290591 -12.877491 6.434116 -0.955322 5.266869 -85.649404 2.395268 33.587506 -74.506012 22.272028 -0.000000 -0.000002 0.000000 87.594663 -8.018149 0.486096 0.000007 0.000009 -3.004080 -4.999932 -7.999205 0.000052 3.563212 62.533756 -3.619942 -36.755734 102.366750 43.155321 0.000001 -0.000006 -0.000001 69.620125 7.420321 -2.238413 -0.000024 -0.000001 3.000002 -5.000002 7.999172 -0.000058 -60.564428 -160.063871 12.810688 179.999964 -0.000006 -1.581007 81.585899 1.908481 0.271801 -0.000003 -0.000008 2.061552 74.499756 9.095314 -4.921903 25.462211 -7.350657 0.004306 -64.781489 161.509085 -5.980979 -0.000005 -0.000002 -1.599379 -100.657905 -4.875519 -5.073045 -0.000007 0.000005 -2.408319 74.185997 -8.244037 2.327076 26.318184 7.349243 -0.112128 
48.518505 1.186348 54.334389 -27.895027 1.857042 3.893748 3.473102 -0.432498 -0.382708 10.946608 -0.880857 -0.723840 12.591741 -0.889426 -0.713027 29.206965 -7.556242 -0.288900 -12.901225 6.433188 -0.953105 5.367139 -85.667573 2.495338 33.657526 -74.482858 22.335190 -0.000000 0.000001 -0.000001 87.599362 -8.018193 0.484329 0.000008 0.000010 -3.004079 -4.999933 -7.999204 0.000052 3.581865 62.538086 -3.640703 -36.824876 102.374755 43.192033 0.000000 -0.000004 -0.000001 69.611888 7.417227 -2.233819 -0.000024 -0.000001 3.000002 -5.000002 7.999174 -0.000060 -60.562270 -160.069349 12.810406 179.999964 -0.000005 -1.581005 81.587764 1.908986 0.271805 -0.000004 -0.000008 2.061499 74.498151 9.094563 -4.920379 25.462214 -7.350656 0.004309 -64.780403 161.515833 -5.976616 -0.000004 -0.000005 -1.599380 -100.656983 -4.877551 -5.076200 -0.000007 0.000004 -2.407652 74.180205 -8.242896 2.320609 26.320505 7.349241 -0.112285 
48.513107 1.188290 54.331501 -27.896356 1.858415 3.893280 3.475979 -0.432462 -0.382919 10.952413 -0.880755 -0.725174 12.597541 -0.889342 -0.714366 29.223501 -7.554141 -0.287120 -12.924565 6.432612 -0.950876 5.469943 -85.686233 2.597924 33.727047 -74.459382 22.398323 -0.000000 0.000001 0.000000 87.603842 -8.018272 0.482433 0.000008 0.000007 -3.004078 -4.999933 -7.999206 0.000051 3.600475 62.542014 -3.661460 -36.892666 102.383176 43.227096 -0.000000 -0.000005 -0.000001 69.603439 7.414122 -2.229214 -0.000024 0.000000 2.999999 -5.000001 7.999174 -0.000058 -60.560432 -160.074362 12.809107 179.999964 -0.000005 -1.581007 81.589615 1.909461 0.271709 -0.000004 -0.000009 2.061450 74.496545 9.093795 -4.918851 25.462214 -7.350657 0.004310 -64.779713 161.522185 -5.971575 -0.000005 -0.000004 -1.599380 -100.656149 -4.879402 -5.079332 -0.000007 0.000006 -2.406970 74.174454 -8.241839 2.314434 26.322733 7.349247 -0.112431 
48.513901 1.185253 54.332596 -27.897681 1.859798 3.892785 3.478850 -0.432419 -0.383129 10.958110 -0.880635 -0.726507 12.603243 -0.889241 -0.715704 29.239948 -7.552179 -0.285320 -12.947908 6.432123 -0.948627 5.574138 -85.705070 2.701897 33.796503 -74.435859 22.461369 -0.000000 -0.000001 -0.000001 87.608289 -8.018439 0.480750 0.000008 0.000011 -3.004079 -4.999931 -7.999202 0.000054 3.619068 62.545927 -3.682215 -36.960339 102.391619 43.261978 -0.000000 -0.000003 -0.000001 69.594874 7.411014 -2.224503 -0.000024 -0.000001 3.000003 -5.000003 7.999175 -0.000059 -60.558370 -160.079895 12.808595 179.999964 -0.000006 -1.581008 81.591562 1.909915 0.271510 -0.000003 -0.000009 2.061401 74.494845 9.093056 -4.917314 25.462213 -7.350654 0.004308 -64.778921 161.528510 -5.966668 -0.000005 -0.000003 -1.599379 -100.655214 -4.881203 -5.082461 -0.000008 0.000005 -2.406291 74.168703 -8.240768 2.308163 26.325050 7.349247 -0.112588 
48.516903 1.179665 54.332104 -27.899000 1.861173 3.892338 3.481745 -0.432391 -0.383344 10.963909 -0.880552 -0.727844 12.609044 -0.889177 -0.717046 29.256569 -7.549921 -0.283572 -12.971345 6.431465 -0.946394 5.678336 -85.723594 2.805896 33.865529 -74.412357 22.523800 0.000000 -0.000001 -0.000001 87.612804 -8.018629 0.479059 0.000008 0.000009 -3.004079 -4.999934 -7.999203 0.000051 3.637701 62.549957 -3.702987 -37.028470 102.399924 43.297460 -0.000000 -0.000006 -0.000001 69.586527 7.407869 -2.219816 -0.000024 -0.000001 3.000001 -5.000001 7.999176 -0.000058 -60.556614 -160.084936 12.807263 179.999964 -0.000006 -1.581006 81.593413 1.910389 0.271512 -0.000004 -0.000008 2.061339 74.493151 9.092343 -4.915776 25.462209 -7.350656 0.004308 -64.778129 161.534807 -5.961557 -0.000005 -0.000003 -1.599379 -100.654196 -4.883198 -5.084599 -0.000007 0.000005 -2.405620 74.162945 -8.239686 2.301891 26.327277 7.349248 -0.112733 
48.515400 1.180550 54.333786 -27.900324 1.862520 3.891975 3.484652 -0.432404 -0.383575 10.969712 -0.880564 -0.729194 12.614841 -0.889206 -0.718400 29.273538 -7.546946 -0.281911 -12.995173 6.430353 -0.944218 5.781185 -85.741414 2.908578 33.934975 -74.389325 22.586187 0.000000 -0.000002 -0.000001 87.617619 -8.018588 0.477095 0.000008 0.000007 -3.004081 -4.999934 -7.999202 0.000052 3.656399 62.554472 -3.723776 -37.097732 102.407820 43.334412 0.000000 -0.000007 0.000001 69.578393 7.404763 -2.215131 -0.000025 -0.000001 2.999999 -5.000004 7.999175 -0.000058 -60.554292 -160.090318 12.806944 179.999964 -0.000003 -1.579996 81.595277 1.910919 0.271422 -0.000004 -0.000008 2.061298 74.491539 9.091589 -4.914249 25.462211 -7.350659 0.004309 -64.777132 161.541583 -5.956965 -0.000005 -0.000005 -1.599379 -100.653452 -4.885087 -5.087749 -0.000007 0.000005 -2.404952 74.157146 -8.238543 2.295428 26.329700 7.349245 -0.112914 
48.514099 1.181915 54.334389 -27.901849 1.863837 3.891756 3.487612 -0.432480 -0.383830 10.975614 -0.880725 -0.730563 12.620744 -0.889387 -0.719770 29.291034 -7.542811 -0.280445 -13.019789 6.428531 -0.942085 5.881420 -85.758257 3.008721 34.004411 -74.366813 22.647837 -0.000000 -0.000001 0.000000 87.622830 -8.018354 0.474967 0.000008 0.000009 -3.004081 -4.999933 -7.999205 0.000049 3.675233 62.559683 -3.744613 -37.169288 102.414991 43.374174 -0.000001 -0.000007 0.000000 69.570695 7.401660 -2.210580 -0.000025 -0.000000 3.000000 -5.000003 7.999173 -0.000059 -60.552086 -160.095113 12.806069 179.999964 -0.000004 -1.579995 81.597149 1.911495 0.271334 -0.000003 -0.000008 2.061259 74.489954 9.090847 -4.912719 25.462213 -7.350656 0.004310 -64.776134 161.548372 -5.951885 -0.000005 -0.000004 -1.599380 -100.652618 -4.887390 -5.089924 -0.000008 0.000004 -2.404298 74.151279 -8.237258 2.288676 26.332123 7.349237 -0.113088 
48.513405 1.182999 54.336491 -27.903573 1.865098 3.891746 3.490619 -0.432646 -0.384118 10.981615 -0.881093 -0.731960 12.626748 -0.889774 -0.721167 29.309322 -7.537083 -0.279206 -13.045190 6.425734 -0.940065 5.977290 -85.773502 3.104569 34.074120 -74.345045 22.708641 -0.000000 -0.000003 -0.000001 87.628677 -8.017777 0.472695 0.000007 0.000009 -3.004081 -4.999934 -7.999203 0.000053 3.694207 62.565790 -3.765473 -37.243546 102.421275 43.417364 -0.000000 -0.000005 0.000000 69.563653 7.398600 -2.206064 -0.000025 -0.000001 3.000002 -5.000003 7.999170 -0.000057 -60.549607 -160.099730 12.805380 179.999964 -0.000006 -1.579996 81.599143 1.912120 0.271548 -0.000004 -0.000009 2.061238 74.488370 9.090111 -4.911092 25.462214 -7.350656 0.004310 -64.775007 161.555708 -5.946691 -0.000005 -0.000007 -1.599380 -100.652072 -4.889587 -5.094108 -0.000007 0.000005 -2.403659 74.145262 -8.235875 2.281527 26.334650 7.349247 -0.113290 
